<svg width="21" height="21" viewBox="0 0 21 21" fill="none" xmlns="http://www.w3.org/2000/svg">
<path d="M13.906 3.07617C13.906 2.38582 14.4657 1.82617 15.156 1.82617H17.656C18.3464 1.82617 18.906 2.38582 18.906 3.07617V18.0762H19.531C19.8762 18.0762 20.156 18.356 20.156 18.7012C20.156 19.0463 19.8762 19.3262 19.531 19.3262H0.781006C0.435828 19.3262 0.156006 19.0463 0.156006 18.7012C0.156006 18.356 0.435828 18.0762 0.781006 18.0762H1.40601V14.3262C1.40601 13.6358 1.96565 13.0762 2.65601 13.0762H5.15601C5.84636 13.0762 6.40601 13.6358 6.40601 14.3262V18.0762H7.65601V9.32617C7.65601 8.63582 8.21565 8.07617 8.90601 8.07617H11.406C12.0964 8.07617 12.656 8.63582 12.656 9.32617V18.0762H13.906V3.07617ZM15.156 18.0762H17.656V3.07617H15.156V18.0762ZM11.406 18.0762V9.32617H8.90601V18.0762H11.406ZM5.15601 18.0762V14.3262H2.65601V18.0762H5.15601Z" fill="black"/>
</svg>
