<svg width="25" height="26" viewBox="0 0 25 26" fill="none" xmlns="http://www.w3.org/2000/svg">
<path d="M12.2305 25.5C13.9191 25.5 15.2881 24.1009 15.2881 22.375H9.17285C9.17285 24.1009 10.5418 25.5 12.2305 25.5Z" fill="#999999"/>
<path d="M12.2305 3.49727L11.0117 3.74883C8.21814 4.32545 6.11526 6.85098 6.11526 9.875C6.11526 10.856 5.90985 13.3082 5.41375 15.7221C5.16747 16.9205 4.83798 18.1682 4.40005 19.25H20.0609C19.623 18.1682 19.2935 16.9205 19.0472 15.7221C18.5511 13.3082 18.3457 10.856 18.3457 9.875C18.3457 6.85096 16.2428 4.32542 13.4492 3.74882L12.2305 3.49727ZM21.7386 19.25C22.0799 19.9491 22.4757 20.5015 22.9321 20.8125H1.52881C1.9852 20.5015 2.38104 19.9491 2.72235 19.25C4.09602 16.4365 4.58646 11.2487 4.58646 9.875C4.58646 6.09272 7.21628 2.9382 10.7091 2.21725C10.7042 2.16635 10.7017 2.11472 10.7017 2.0625C10.7017 1.19956 11.3861 0.5 12.2305 0.5C13.0748 0.5 13.7593 1.19956 13.7593 2.0625C13.7593 2.11472 13.7568 2.16634 13.7519 2.21724C17.2447 2.93816 19.8745 6.09269 19.8745 9.875C19.8745 11.2487 20.3649 16.4365 21.7386 19.25Z" fill="#999999"/>
</svg>
