<svg width="21" height="21" viewBox="0 0 21 21" fill="none" xmlns="http://www.w3.org/2000/svg">
<path d="M18.156 0.576172H3.15601C1.77529 0.576172 0.656006 1.69546 0.656006 3.07617V18.0762C0.656006 19.4569 1.77529 20.5762 3.15601 20.5762H18.156C19.5367 20.5762 20.656 19.4569 20.656 18.0762V3.07617C20.656 1.69546 19.5367 0.576172 18.156 0.576172ZM1.90601 5.3976C1.90601 4.80587 2.46565 4.32617 3.15601 4.32617H18.156C18.8464 4.32617 19.406 4.80587 19.406 5.3976V18.2547C19.406 18.8465 18.8464 19.3262 18.156 19.3262H3.15601C2.46565 19.3262 1.90601 18.8465 1.90601 18.2547V5.3976Z" fill="black"/>
<path d="M15.656 9.32617C16.3464 9.32617 16.906 8.76653 16.906 8.07617C16.906 7.38582 16.3464 6.82617 15.656 6.82617C14.9656 6.82617 14.406 7.38582 14.406 8.07617C14.406 8.76653 14.9656 9.32617 15.656 9.32617Z" fill="black"/>
<path d="M9.40601 13.0762C10.0964 13.0762 10.656 12.5165 10.656 11.8262C10.656 11.1358 10.0964 10.5762 9.40601 10.5762C8.71565 10.5762 8.15601 11.1358 8.15601 11.8262C8.15601 12.5165 8.71565 13.0762 9.40601 13.0762Z" fill="black"/>
<path d="M11.906 9.32617C12.5964 9.32617 13.156 8.76653 13.156 8.07617C13.156 7.38582 12.5964 6.82617 11.906 6.82617C11.2157 6.82617 10.656 7.38582 10.656 8.07617C10.656 8.76653 11.2157 9.32617 11.906 9.32617Z" fill="black"/>
<path d="M5.65601 13.0762C6.34636 13.0762 6.90601 12.5165 6.90601 11.8262C6.90601 11.1358 6.34636 10.5762 5.65601 10.5762C4.96565 10.5762 4.40601 11.1358 4.40601 11.8262C4.40601 12.5165 4.96565 13.0762 5.65601 13.0762Z" fill="black"/>
</svg>
