<svg width="21" height="21" viewBox="0 0 21 21" fill="none" xmlns="http://www.w3.org/2000/svg">
<path d="M4.44172 2.45117H3.01315C1.43519 2.45117 0.156006 3.57046 0.156006 4.95117V18.0762C0.156006 19.4569 1.43519 20.5762 3.01315 20.5762H17.2989C18.8768 20.5762 20.156 19.4569 20.156 18.0762V4.95117C20.156 3.57046 18.8768 2.45117 17.2989 2.45117H15.8703V3.70117H17.2989C18.0878 3.70117 18.7274 4.26082 18.7274 4.95117V18.0762C18.7274 18.7665 18.0878 19.3262 17.2989 19.3262H3.01315C2.22417 19.3262 1.58458 18.7665 1.58458 18.0762V4.95117C1.58458 4.26082 2.22417 3.70117 3.01315 3.70117H4.44172V2.45117Z" fill="black"/>
<path d="M12.2989 1.82617C12.6934 1.82617 13.0131 2.10599 13.0131 2.45117V3.70117C13.0131 4.04635 12.6934 4.32617 12.2989 4.32617H8.01315C7.61866 4.32617 7.29886 4.04635 7.29886 3.70117V2.45117C7.29886 2.10599 7.61866 1.82617 8.01315 1.82617H12.2989ZM8.01315 0.576172C6.82968 0.576172 5.87029 1.41564 5.87029 2.45117V3.70117C5.87029 4.73671 6.82968 5.57617 8.01315 5.57617H12.2989C13.4823 5.57617 14.4417 4.73671 14.4417 3.70117V2.45117C14.4417 1.41564 13.4823 0.576172 12.2989 0.576172H8.01315Z" fill="black"/>
</svg>
