<svg width="26" height="26" viewBox="0 0 26 26" fill="none" xmlns="http://www.w3.org/2000/svg">
<path d="M12.9609 13C15.5498 13 17.6484 10.9013 17.6484 8.3125C17.6484 5.72367 15.5498 3.625 12.9609 3.625C10.3721 3.625 8.27344 5.72367 8.27344 8.3125C8.27344 10.9013 10.3721 13 12.9609 13ZM16.0859 8.3125C16.0859 10.0384 14.6868 11.4375 12.9609 11.4375C11.235 11.4375 9.83594 10.0384 9.83594 8.3125C9.83594 6.58661 11.235 5.1875 12.9609 5.1875C14.6868 5.1875 16.0859 6.58661 16.0859 8.3125Z" fill="#999999"/>
<path d="M22.3359 20.8125C22.3359 22.375 20.7734 22.375 20.7734 22.375H5.14844C5.14844 22.375 3.58594 22.375 3.58594 20.8125C3.58594 19.25 5.14844 14.5625 12.9609 14.5625C20.7734 14.5625 22.3359 19.25 22.3359 20.8125ZM20.7734 20.8071C20.7712 20.4215 20.5332 19.2663 19.4733 18.2064C18.4541 17.1873 16.5377 16.125 12.9609 16.125C9.38419 16.125 7.46774 17.1873 6.44859 18.2064C5.38868 19.2663 5.15066 20.4215 5.14844 20.8071H20.7734Z" fill="#999999"/>
</svg>
