<svg width="21" height="21" viewBox="0 0 21 21" fill="none" xmlns="http://www.w3.org/2000/svg">
<path d="M10.656 11.8887C12.3819 11.8887 13.781 10.4896 13.781 8.76369C13.781 7.0378 12.3819 5.63869 10.656 5.63869C8.93014 5.63869 7.53103 7.0378 7.53103 8.76369C7.53103 10.4896 8.93014 11.8887 10.656 11.8887Z" fill="black"/>
<path d="M1.90601 1.82617C1.21565 1.82617 0.656006 2.38582 0.656006 3.07617V16.8262C0.656006 17.5165 1.21565 18.0762 1.90601 18.0762H2.53101C2.87618 18.0762 3.15601 17.7963 3.15601 17.4512C3.15601 17.106 3.43583 16.8262 3.78101 16.8262C4.12618 16.8262 4.40601 17.106 4.40601 17.4512C4.40601 17.7963 4.68583 18.0762 5.03101 18.0762H16.281C16.6262 18.0762 16.906 17.7963 16.906 17.4512C16.906 17.106 17.1858 16.8262 17.531 16.8262C17.8762 16.8262 18.156 17.106 18.156 17.4512C18.156 17.7963 18.4358 18.0762 18.781 18.0762H19.406C20.0964 18.0762 20.656 17.5165 20.656 16.8262V4.32617C20.656 3.63582 20.0964 3.07617 19.406 3.07617L9.03989 3.07617L8.15601 2.19229C7.92159 1.95787 7.60364 1.82617 7.27212 1.82617H1.90601ZM1.90601 3.07617L7.27212 3.07617L8.15601 3.96006C8.39043 4.19448 8.70837 4.32617 9.03989 4.32617H19.406V16.8262H19.2993C19.0419 16.0979 18.3474 15.5762 17.531 15.5762C17.0594 15.5762 16.6285 15.7503 16.299 16.0377C15.5138 14.6064 13.85 13.0762 10.656 13.0762C7.462 13.0762 5.79824 14.6064 5.01306 16.0378C4.68356 15.7503 4.25262 15.5762 3.78101 15.5762C2.96462 15.5762 2.27009 16.0979 2.0127 16.8262H1.90601V3.07617Z" fill="black"/>
</svg>
