<svg width="25" height="26" viewBox="0 0 25 26" fill="none" xmlns="http://www.w3.org/2000/svg">
<path d="M12.5001 7.92846C9.69914 7.92846 7.42855 10.199 7.42855 13C7.42855 15.8009 9.69914 18.0715 12.5001 18.0715C15.301 18.0715 17.5716 15.8009 17.5716 13C17.5716 10.199 15.301 7.92846 12.5001 7.92846ZM8.99105 13C8.99105 11.062 10.5621 9.49096 12.5001 9.49096C14.438 9.49096 16.0091 11.062 16.0091 13C16.0091 14.9379 14.438 16.509 12.5001 16.509C10.5621 16.509 8.99105 14.9379 8.99105 13Z" fill="#999999"/>
<path d="M15.307 2.59902C14.4821 -0.199676 10.5179 -0.199674 9.69301 2.59902L9.54637 3.09655C9.30072 3.92999 8.34877 4.3243 7.58573 3.90867L7.13024 3.66056C4.56796 2.26488 1.76489 5.06797 3.16057 7.63025L3.40867 8.08574C3.8243 8.84877 3.42999 9.80072 2.59655 10.0464L2.09902 10.193C-0.699676 11.0179 -0.699674 14.9821 2.09902 15.807L2.59655 15.9536C3.42999 16.1993 3.8243 17.1512 3.40867 17.9143L3.16056 18.3698C1.76489 20.932 4.56796 23.7351 7.13024 22.3394L7.58573 22.0913C8.34877 21.6757 9.30072 22.07 9.54637 22.9034L9.69301 23.401C10.5179 26.1997 14.4821 26.1997 15.307 23.401L15.4536 22.9034C15.6993 22.07 16.6512 21.6757 17.4143 22.0913L17.8698 22.3394C20.432 23.7351 23.2351 20.932 21.8394 18.3698L21.5913 17.9143C21.1757 17.1512 21.57 16.1993 22.4035 15.9536L22.901 15.807C25.6997 14.9821 25.6997 11.0179 22.901 10.193L22.4034 10.0464C21.57 9.80072 21.1757 8.84877 21.5913 8.08573L21.8394 7.63024C23.2351 5.06796 20.432 2.26489 17.8698 3.66057L17.4143 3.90867C16.6512 4.3243 15.6993 3.92999 15.4536 3.09655L15.307 2.59902ZM11.1918 3.04078C11.5762 1.73641 13.4238 1.73641 13.8082 3.04078L13.9549 3.5383C14.482 5.32655 16.5245 6.1726 18.1617 5.28082L18.6172 5.03271C19.8114 4.38223 21.1178 5.68865 20.4673 6.88283L20.2192 7.33832C19.3274 8.97551 20.1734 11.018 21.9617 11.5451L22.4592 11.6918C23.7636 12.0762 23.7636 13.9238 22.4592 14.3082L21.9617 14.4549C20.1734 14.982 19.3274 17.0245 20.2192 18.6617L20.4673 19.1172C21.1178 20.3114 19.8114 21.6178 18.6172 20.9673L18.1617 20.7192C16.5245 19.8274 14.482 20.6734 13.9549 22.4617L13.8082 22.9592C13.4238 24.2636 11.5762 24.2636 11.1918 22.9592L11.0451 22.4617C10.518 20.6734 8.47551 19.8274 6.83832 20.7192L6.38283 20.9673C5.18865 21.6178 3.88223 20.3114 4.53271 19.1172L4.78082 18.6617C5.6726 17.0245 4.82656 14.982 3.03831 14.4549L2.54078 14.3082C1.23641 13.9238 1.23641 12.0762 2.54078 11.6918L3.0383 11.5451C4.82655 11.018 5.6726 8.97551 4.78082 7.33833L4.53271 6.88283C3.88223 5.68865 5.18865 4.38224 6.38283 5.03271L6.83832 5.28082C8.47551 6.1726 10.518 5.32656 11.0451 3.5383L11.1918 3.04078Z" fill="#999999"/>
</svg>
